<svg xmlns="http://www.w3.org/2000/svg" width="1280" height="720" viewBox="0 0 1280 720" role="img" aria-label="SheetSage demo poster">
  <defs>
    <linearGradient id="bg" x1="0" y1="0" x2="1" y2="1">
      <stop offset="0" stop-color="#f8fafc" />
      <stop offset="1" stop-color="#ffffff" />
    </linearGradient>
    <pattern id="grid" width="40" height="40" patternUnits="userSpaceOnUse">
      <circle cx="2" cy="2" r="1" fill="#e2e8f0" />
    </pattern>
    <filter id="shadow" x="-20%" y="-20%" width="140%" height="140%">
      <feDropShadow dx="0" dy="12" stdDeviation="18" flood-color="#0f172a" flood-opacity="0.12" />
    </filter>
  </defs>

  <rect width="1280" height="720" fill="url(#bg)" />
  <rect width="1280" height="720" fill="url(#grid)" opacity="0.7" />

  <g filter="url(#shadow)">
    <rect x="160" y="120" width="960" height="480" rx="28" fill="#ffffff" stroke="#e2e8f0" />
  </g>

  <!-- Fake “sidebar” card -->
  <g>
    <rect x="220" y="180" width="360" height="360" rx="18" fill="#0f172a" opacity="0.03" />
    <rect x="240" y="200" width="320" height="56" rx="14" fill="#ffffff" stroke="#e2e8f0" />
    <circle cx="270" cy="228" r="12" fill="#059669" opacity="0.9" />
    <rect x="294" y="216" width="140" height="10" rx="5" fill="#0f172a" opacity="0.55" />
    <rect x="294" y="234" width="190" height="10" rx="5" fill="#0f172a" opacity="0.25" />

    <rect x="240" y="276" width="320" height="92" rx="16" fill="#ffffff" stroke="#e2e8f0" />
    <rect x="262" y="298" width="190" height="12" rx="6" fill="#0f172a" opacity="0.55" />
    <rect x="262" y="320" width="250" height="10" rx="5" fill="#0f172a" opacity="0.2" />
    <rect x="262" y="340" width="170" height="10" rx="5" fill="#0f172a" opacity="0.2" />
    <rect x="470" y="294" width="72" height="24" rx="12" fill="#dcfce7" />
    <rect x="486" y="302" width="40" height="8" rx="4" fill="#059669" opacity="0.9" />

    <rect x="240" y="386" width="320" height="92" rx="16" fill="#ffffff" stroke="#e2e8f0" />
    <rect x="262" y="408" width="210" height="12" rx="6" fill="#0f172a" opacity="0.55" />
    <rect x="262" y="430" width="248" height="10" rx="5" fill="#0f172a" opacity="0.2" />
    <rect x="262" y="450" width="190" height="10" rx="5" fill="#0f172a" opacity="0.2" />
    <rect x="470" y="404" width="72" height="24" rx="12" fill="#fef3c7" />
    <rect x="486" y="412" width="40" height="8" rx="4" fill="#b45309" opacity="0.9" />
  </g>

  <!-- Fake “sheet” block -->
  <g>
    <rect x="610" y="180" width="450" height="360" rx="18" fill="#ffffff" stroke="#e2e8f0" />
    <rect x="610" y="180" width="450" height="44" rx="18" fill="#f8fafc" />
    <rect x="636" y="197" width="110" height="10" rx="5" fill="#0f172a" opacity="0.25" />
    <g opacity="0.28">
      <rect x="636" y="244" width="398" height="22" rx="8" fill="#e2e8f0" />
      <rect x="636" y="276" width="398" height="22" rx="8" fill="#e2e8f0" />
      <rect x="636" y="308" width="398" height="22" rx="8" fill="#e2e8f0" />
      <rect x="636" y="340" width="398" height="22" rx="8" fill="#e2e8f0" />
      <rect x="636" y="372" width="398" height="22" rx="8" fill="#e2e8f0" />
      <rect x="636" y="404" width="398" height="22" rx="8" fill="#e2e8f0" />
      <rect x="636" y="436" width="398" height="22" rx="8" fill="#e2e8f0" />
      <rect x="636" y="468" width="398" height="22" rx="8" fill="#e2e8f0" />
    </g>
  </g>

  <g>
    <text x="640" y="110" text-anchor="middle" font-family="Inter, system-ui, -apple-system, Segoe UI, Roboto, Arial" font-size="46" font-weight="800" fill="#0f172a">
      SheetSage Demo
    </text>
    <text x="640" y="154" text-anchor="middle" font-family="Inter, system-ui, -apple-system, Segoe UI, Roboto, Arial" font-size="20" font-weight="600" fill="#334155">
      Coming soon — replace this poster with your real recording
    </text>
  </g>
</svg>

